<svg xmlns="http://www.w3.org/2000/svg" xmlns:xlink="http://www.w3.org/1999/xlink" width="500" zoomAndPan="magnify" viewBox="0 0 375 374.999991" height="500" preserveAspectRatio="xMidYMid meet" version="1.2"><defs/><g id="367769696c"><g style="fill:#2b041a;fill-opacity:1;"><g transform="translate(54.860754, 247.937907)"><path style="stroke:none" d="M 43.28125 -47.296875 L 43.28125 -87.859375 L 71.65625 -87.859375 L 71.65625 -27.34375 C 71.65625 -21.8125 70.679688 -17.207031 68.734375 -13.53125 C 66.796875 -9.863281 64.269531 -6.972656 61.15625 -4.859375 C 58.050781 -2.742188 54.726562 -1.253906 51.1875 -0.390625 C 47.644531 0.472656 44.273438 0.90625 41.078125 0.90625 C 37.878906 0.90625 34.941406 0.390625 32.265625 -0.640625 C 29.585938 -1.679688 27.125 -2.867188 24.875 -4.203125 C 22.632812 -5.546875 20.5625 -6.734375 18.65625 -7.765625 C 16.757812 -8.804688 15.03125 -9.328125 13.46875 -9.328125 C 10.28125 -9.328125 8.1875 -8.484375 7.1875 -6.796875 C 6.195312 -5.117188 5.703125 -2.851562 5.703125 0 L 2.71875 0 C 2.289062 -3.539062 2.25 -7.191406 2.59375 -10.953125 C 2.9375 -14.710938 3.882812 -18.1875 5.4375 -21.375 C 7 -24.570312 9.289062 -27.164062 12.3125 -29.15625 C 15.332031 -31.144531 19.257812 -32.140625 24.09375 -32.140625 C 28.9375 -32.140625 33.191406 -31.335938 36.859375 -29.734375 C 40.535156 -28.140625 43.816406 -26.328125 46.703125 -24.296875 C 49.597656 -22.265625 52.234375 -20.445312 54.609375 -18.84375 C 56.992188 -17.25 59.304688 -16.453125 61.546875 -16.453125 C 64.660156 -16.453125 66.539062 -17.207031 67.1875 -18.71875 C 67.832031 -20.226562 68.023438 -21.847656 67.765625 -23.578125 C 67.503906 -25.222656 66.507812 -26.582031 64.78125 -27.65625 C 63.0625 -28.738281 61.015625 -29.753906 58.640625 -30.703125 C 56.265625 -31.660156 53.882812 -32.785156 51.5 -34.078125 C 49.125 -35.367188 47.160156 -37.050781 45.609375 -39.125 C 44.054688 -41.207031 43.28125 -43.929688 43.28125 -47.296875 Z M 43.28125 -47.296875 "/></g></g><g style="fill:#2b041a;fill-opacity:1;"><g transform="translate(125.608552, 247.937907)"><path style="stroke:none" d="M 31.359375 0 L 2.984375 0 L 2.984375 -87.859375 L 31.359375 -87.859375 Z M 31.359375 0 "/></g></g><g style="fill:#2b041a;fill-opacity:1;"><g transform="translate(156.058603, 247.937907)"><path style="stroke:none" d="M 38.484375 -87.859375 L 77.75 -87.859375 C 77.75 -84.484375 76.753906 -81.390625 74.765625 -78.578125 C 72.773438 -75.773438 70.289062 -73.035156 67.3125 -70.359375 C 64.332031 -67.679688 61.304688 -64.914062 58.234375 -62.0625 C 55.171875 -59.21875 52.601562 -56.15625 50.53125 -52.875 C 48.03125 -48.894531 46.476562 -45.585938 45.875 -42.953125 C 45.269531 -40.316406 44.96875 -38.3125 44.96875 -36.9375 L 44.96875 0 L 16.71875 0 L 16.71875 -11.65625 C 16.71875 -14.425781 17.320312 -16.628906 18.53125 -18.265625 C 19.738281 -19.910156 21.289062 -21.25 23.1875 -22.28125 C 25.09375 -23.320312 27.101562 -24.226562 29.21875 -25 C 31.332031 -25.78125 33.335938 -26.644531 35.234375 -27.59375 C 37.140625 -28.550781 38.695312 -29.785156 39.90625 -31.296875 C 41.113281 -32.804688 41.71875 -34.8125 41.71875 -37.3125 C 41.71875 -40.25 41.113281 -42.492188 39.90625 -44.046875 C 38.695312 -45.609375 37.117188 -46.753906 35.171875 -47.484375 C 33.234375 -48.222656 31.117188 -48.742188 28.828125 -49.046875 C 26.535156 -49.347656 24.265625 -49.734375 22.015625 -50.203125 C 19.773438 -50.679688 17.789062 -51.457031 16.0625 -52.53125 C 14.332031 -53.613281 13.082031 -55.28125 12.3125 -57.53125 C 11.1875 -60.726562 10.34375 -63.492188 9.78125 -65.828125 C 9.21875 -68.160156 8.375 -70.664062 7.25 -73.34375 C 5.695312 -77.050781 3.492188 -79.097656 0.640625 -79.484375 C -2.203125 -79.878906 -4.617188 -78.953125 -6.609375 -76.703125 L -8.9375 -79.046875 C -6.34375 -82.671875 -3.171875 -85.195312 0.578125 -86.625 C 4.335938 -88.050781 7.898438 -88.765625 11.265625 -88.765625 C 12.910156 -88.765625 15.003906 -88.4375 17.546875 -87.78125 C 20.097656 -87.132812 22.753906 -85.96875 25.515625 -84.28125 C 28.285156 -82.601562 30.921875 -80.1875 33.421875 -77.03125 C 35.929688 -73.875 37.960938 -69.835938 39.515625 -64.921875 C 40.722656 -60.941406 41.71875 -57.65625 42.5 -55.0625 C 43.28125 -52.476562 43.84375 -50.101562 44.1875 -47.9375 C 44.707031 -49.5 45.398438 -51.015625 46.265625 -52.484375 C 50.316406 -59.566406 51.867188 -66.109375 50.921875 -72.109375 C 49.972656 -78.109375 45.828125 -83.359375 38.484375 -87.859375 Z M 38.484375 -87.859375 "/></g></g><g style="fill:#2b041a;fill-opacity:1;"><g transform="translate(232.248523, 247.937907)"><path style="stroke:none" d="M 40.6875 0 L 2.328125 0 C 2.328125 -4.664062 3.019531 -9.546875 4.40625 -14.640625 C 5.789062 -19.734375 7.582031 -24.785156 9.78125 -29.796875 C 11.988281 -34.804688 14.320312 -39.515625 16.78125 -43.921875 C 19.238281 -48.328125 21.550781 -52.171875 23.71875 -55.453125 C 25.1875 -57.703125 26.78125 -59.945312 28.5 -62.1875 C 30.226562 -64.4375 31.914062 -66.597656 33.5625 -68.671875 C 31.914062 -74.117188 30.316406 -78.222656 28.765625 -80.984375 C 27.210938 -83.753906 24.96875 -85.140625 22.03125 -85.140625 L 22.03125 -88.5 C 28.59375 -88.5 34.359375 -87.632812 39.328125 -85.90625 C 44.296875 -84.175781 48.570312 -81.882812 52.15625 -79.03125 C 55.738281 -76.1875 58.695312 -72.992188 61.03125 -69.453125 C 63.363281 -65.910156 65.132812 -62.328125 66.34375 -58.703125 C 69.101562 -50.410156 71.390625 -42.503906 73.203125 -34.984375 C 75.023438 -27.472656 77.226562 -20.691406 79.8125 -14.640625 C 81.457031 -10.929688 83.679688 -8.878906 86.484375 -8.484375 C 89.296875 -8.097656 91.738281 -8.984375 93.8125 -11.140625 L 96.015625 -8.8125 C 93.421875 -5.1875 90.242188 -2.660156 86.484375 -1.234375 C 82.734375 0.191406 79.21875 0.90625 75.9375 0.90625 C 71.1875 0.90625 66.890625 -0.257812 63.046875 -2.59375 C 59.203125 -4.925781 55.9375 -7.96875 53.25 -11.71875 C 50.570312 -15.476562 48.5 -19.476562 47.03125 -23.71875 L 27.734375 -23.71875 C 29.203125 -19.050781 31.078125 -14.644531 33.359375 -10.5 C 35.648438 -6.351562 38.09375 -2.851562 40.6875 0 Z M 46 -26.828125 C 44.101562 -32.785156 42.222656 -39.132812 40.359375 -45.875 C 38.503906 -52.613281 36.628906 -59.003906 34.734375 -65.046875 C 33.953125 -63.921875 33.171875 -62.835938 32.390625 -61.796875 C 31.617188 -60.765625 30.84375 -59.644531 30.0625 -58.4375 C 27.125 -54.03125 25.523438 -49.039062 25.265625 -43.46875 C 25.003906 -37.894531 25.566406 -32.347656 26.953125 -26.828125 Z M 46 -26.828125 "/></g></g></g></svg>